<mxfile host="app.diagrams.net" agent="Mozilla/5.0 (Macintosh; Intel Mac OS X 10_15_7) AppleWebKit/537.36 (KHTML, like Gecko) Chrome/129.0.0.0 Safari/537.36" version="24.8.3" pages="3">
  <diagram id="PkHLglbN_e-lR8CUWKn9" name="USER STORY_FRAME">
    <mxGraphModel dx="1175" dy="933" grid="1" gridSize="10" guides="1" tooltips="1" connect="1" arrows="1" fold="1" page="1" pageScale="1" pageWidth="827" pageHeight="1169" math="0" shadow="0">
      <root>
        <mxCell id="0" />
        <mxCell id="1" parent="0" />
        <mxCell id="W9xBzJH1-ywO0qgSc_aa-1" value="" style="rounded=1;whiteSpace=wrap;html=1;strokeWidth=2;" vertex="1" parent="1">
          <mxGeometry x="260" y="740" width="130" height="210" as="geometry" />
        </mxCell>
        <mxCell id="W9xBzJH1-ywO0qgSc_aa-2" value="&lt;font style=&quot;font-size: 9px;&quot;&gt;&lt;b&gt;Поиск активности&lt;/b&gt;&lt;/font&gt;" style="text;strokeColor=none;align=center;fillColor=none;html=1;verticalAlign=middle;whiteSpace=wrap;rounded=0;" vertex="1" parent="1">
          <mxGeometry x="265" y="752.5" width="120" height="30" as="geometry" />
        </mxCell>
        <mxCell id="W9xBzJH1-ywO0qgSc_aa-3" value="" style="rounded=0;whiteSpace=wrap;html=1;strokeWidth=1;" vertex="1" parent="1">
          <mxGeometry x="280" y="795" width="90" height="10" as="geometry" />
        </mxCell>
        <mxCell id="W9xBzJH1-ywO0qgSc_aa-4" value="&lt;font style=&quot;font-size: 9px;&quot;&gt;Вид активности&lt;/font&gt;" style="text;strokeColor=none;align=left;fillColor=none;html=1;verticalAlign=middle;whiteSpace=wrap;rounded=0;" vertex="1" parent="1">
          <mxGeometry x="279.5" y="781" width="95" height="10" as="geometry" />
        </mxCell>
        <mxCell id="W9xBzJH1-ywO0qgSc_aa-5" value="" style="rounded=0;whiteSpace=wrap;html=1;strokeWidth=1;" vertex="1" parent="1">
          <mxGeometry x="280.5" y="824" width="90" height="10" as="geometry" />
        </mxCell>
        <mxCell id="W9xBzJH1-ywO0qgSc_aa-6" value="&lt;font style=&quot;font-size: 9px;&quot;&gt;Дата&lt;/font&gt;" style="text;strokeColor=none;align=left;fillColor=none;html=1;verticalAlign=middle;whiteSpace=wrap;rounded=0;" vertex="1" parent="1">
          <mxGeometry x="280" y="810" width="95" height="10" as="geometry" />
        </mxCell>
        <mxCell id="W9xBzJH1-ywO0qgSc_aa-7" value="&lt;font style=&quot;font-size: 9px;&quot;&gt;Интервал времени&lt;/font&gt;" style="text;strokeColor=none;align=left;fillColor=none;html=1;verticalAlign=middle;whiteSpace=wrap;rounded=0;" vertex="1" parent="1">
          <mxGeometry x="280.5" y="840" width="95" height="10" as="geometry" />
        </mxCell>
        <mxCell id="W9xBzJH1-ywO0qgSc_aa-8" value="" style="rounded=0;whiteSpace=wrap;html=1;strokeWidth=1;" vertex="1" parent="1">
          <mxGeometry x="281" y="854" width="90" height="10" as="geometry" />
        </mxCell>
        <mxCell id="W9xBzJH1-ywO0qgSc_aa-9" value="&lt;font style=&quot;font-size: 9px;&quot;&gt;Месторасположение&lt;/font&gt;" style="text;strokeColor=none;align=left;fillColor=none;html=1;verticalAlign=middle;whiteSpace=wrap;rounded=0;" vertex="1" parent="1">
          <mxGeometry x="281" y="870" width="95" height="10" as="geometry" />
        </mxCell>
        <mxCell id="W9xBzJH1-ywO0qgSc_aa-10" value="" style="rounded=0;whiteSpace=wrap;html=1;strokeWidth=1;" vertex="1" parent="1">
          <mxGeometry x="281.5" y="884" width="90" height="10" as="geometry" />
        </mxCell>
        <mxCell id="W9xBzJH1-ywO0qgSc_aa-11" style="edgeStyle=orthogonalEdgeStyle;rounded=0;orthogonalLoop=1;jettySize=auto;html=1;entryX=0;entryY=0.5;entryDx=0;entryDy=0;strokeWidth=2;" edge="1" parent="1" source="W9xBzJH1-ywO0qgSc_aa-12" target="W9xBzJH1-ywO0qgSc_aa-14">
          <mxGeometry relative="1" as="geometry" />
        </mxCell>
        <mxCell id="W9xBzJH1-ywO0qgSc_aa-12" value="&lt;font style=&quot;font-size: 9px;&quot;&gt;Поиск&lt;/font&gt;" style="rounded=1;whiteSpace=wrap;html=1;fillColor=#E6FFCC;" vertex="1" parent="1">
          <mxGeometry x="290" y="920" width="70" height="20" as="geometry" />
        </mxCell>
        <mxCell id="W9xBzJH1-ywO0qgSc_aa-13" style="edgeStyle=orthogonalEdgeStyle;rounded=0;orthogonalLoop=1;jettySize=auto;html=1;exitX=0.25;exitY=0;exitDx=0;exitDy=0;entryX=0.75;entryY=0;entryDx=0;entryDy=0;strokeWidth=2;" edge="1" parent="1" source="W9xBzJH1-ywO0qgSc_aa-14" target="W9xBzJH1-ywO0qgSc_aa-1">
          <mxGeometry relative="1" as="geometry" />
        </mxCell>
        <mxCell id="W9xBzJH1-ywO0qgSc_aa-14" value="" style="rounded=1;whiteSpace=wrap;html=1;strokeWidth=2;" vertex="1" parent="1">
          <mxGeometry x="445" y="740" width="130" height="210" as="geometry" />
        </mxCell>
        <mxCell id="W9xBzJH1-ywO0qgSc_aa-15" value="" style="rounded=1;whiteSpace=wrap;html=1;strokeWidth=2;" vertex="1" parent="1">
          <mxGeometry x="90" y="740" width="130" height="210" as="geometry" />
        </mxCell>
        <mxCell id="W9xBzJH1-ywO0qgSc_aa-16" value="&lt;font style=&quot;font-size: 9px;&quot;&gt;&lt;b&gt;Предложить активность&lt;/b&gt;&lt;/font&gt;" style="text;strokeColor=none;align=center;fillColor=none;html=1;verticalAlign=middle;whiteSpace=wrap;rounded=0;" vertex="1" parent="1">
          <mxGeometry x="95" y="755" width="120" height="30" as="geometry" />
        </mxCell>
        <mxCell id="W9xBzJH1-ywO0qgSc_aa-17" value="" style="rounded=0;whiteSpace=wrap;html=1;strokeWidth=1;" vertex="1" parent="1">
          <mxGeometry x="110" y="796" width="90" height="10" as="geometry" />
        </mxCell>
        <mxCell id="W9xBzJH1-ywO0qgSc_aa-18" value="&lt;font style=&quot;font-size: 9px;&quot;&gt;Вид активности&lt;/font&gt;" style="text;strokeColor=none;align=left;fillColor=none;html=1;verticalAlign=middle;whiteSpace=wrap;rounded=0;" vertex="1" parent="1">
          <mxGeometry x="109.5" y="782" width="95" height="10" as="geometry" />
        </mxCell>
        <mxCell id="W9xBzJH1-ywO0qgSc_aa-19" value="" style="rounded=0;whiteSpace=wrap;html=1;strokeWidth=1;" vertex="1" parent="1">
          <mxGeometry x="110.5" y="824" width="90" height="10" as="geometry" />
        </mxCell>
        <mxCell id="W9xBzJH1-ywO0qgSc_aa-20" value="&lt;font style=&quot;font-size: 9px;&quot;&gt;Дата&lt;/font&gt;" style="text;strokeColor=none;align=left;fillColor=none;html=1;verticalAlign=middle;whiteSpace=wrap;rounded=0;" vertex="1" parent="1">
          <mxGeometry x="110" y="810" width="95" height="10" as="geometry" />
        </mxCell>
        <mxCell id="W9xBzJH1-ywO0qgSc_aa-21" value="&lt;font style=&quot;font-size: 9px;&quot;&gt;Интервал времени&lt;/font&gt;" style="text;strokeColor=none;align=left;fillColor=none;html=1;verticalAlign=middle;whiteSpace=wrap;rounded=0;" vertex="1" parent="1">
          <mxGeometry x="110.5" y="840" width="95" height="10" as="geometry" />
        </mxCell>
        <mxCell id="W9xBzJH1-ywO0qgSc_aa-22" value="" style="rounded=0;whiteSpace=wrap;html=1;strokeWidth=1;" vertex="1" parent="1">
          <mxGeometry x="111" y="854" width="90" height="10" as="geometry" />
        </mxCell>
        <mxCell id="W9xBzJH1-ywO0qgSc_aa-23" value="&lt;font style=&quot;font-size: 9px;&quot;&gt;Месторасположение&lt;/font&gt;" style="text;strokeColor=none;align=left;fillColor=none;html=1;verticalAlign=middle;whiteSpace=wrap;rounded=0;" vertex="1" parent="1">
          <mxGeometry x="111" y="870" width="95" height="10" as="geometry" />
        </mxCell>
        <mxCell id="W9xBzJH1-ywO0qgSc_aa-24" value="" style="rounded=0;whiteSpace=wrap;html=1;strokeWidth=1;" vertex="1" parent="1">
          <mxGeometry x="111.5" y="884" width="90" height="10" as="geometry" />
        </mxCell>
        <mxCell id="W9xBzJH1-ywO0qgSc_aa-25" value="&lt;font style=&quot;font-size: 8px;&quot;&gt;Опубликовать&lt;/font&gt;" style="rounded=1;whiteSpace=wrap;html=1;fillColor=#E6FFCC;" vertex="1" parent="1">
          <mxGeometry x="120" y="920" width="70" height="20" as="geometry" />
        </mxCell>
        <mxCell id="W9xBzJH1-ywO0qgSc_aa-26" value="&lt;font style=&quot;font-size: 6px;&quot;&gt;Фото&lt;/font&gt;&lt;div style=&quot;line-height: 0%;&quot;&gt;&lt;font style=&quot;font-size: 6px;&quot;&gt;кандидата&lt;/font&gt;&lt;/div&gt;" style="rounded=1;whiteSpace=wrap;html=1;" vertex="1" parent="1">
          <mxGeometry x="460" y="770.5" width="40" height="40" as="geometry" />
        </mxCell>
        <mxCell id="W9xBzJH1-ywO0qgSc_aa-27" value="&lt;font style=&quot;font-size: 6px;&quot;&gt;Фото&lt;/font&gt;&lt;div style=&quot;line-height: 0px;&quot;&gt;&lt;font style=&quot;font-size: 6px;&quot;&gt;кандидата&lt;/font&gt;&lt;/div&gt;" style="rounded=1;whiteSpace=wrap;html=1;" vertex="1" parent="1">
          <mxGeometry x="460" y="823.5" width="40" height="40" as="geometry" />
        </mxCell>
        <mxCell id="W9xBzJH1-ywO0qgSc_aa-28" value="&lt;font style=&quot;font-size: 6px;&quot;&gt;Фото&lt;/font&gt;&lt;div style=&quot;line-height: 0px;&quot;&gt;&lt;font style=&quot;font-size: 6px;&quot;&gt;кандидата&lt;/font&gt;&lt;/div&gt;" style="rounded=1;whiteSpace=wrap;html=1;" vertex="1" parent="1">
          <mxGeometry x="520" y="770.5" width="40" height="40" as="geometry" />
        </mxCell>
        <mxCell id="W9xBzJH1-ywO0qgSc_aa-29" value="&lt;font style=&quot;font-size: 6px;&quot;&gt;Фото&lt;/font&gt;&lt;div style=&quot;line-height: 0px;&quot;&gt;&lt;font style=&quot;font-size: 6px;&quot;&gt;кандидата&lt;/font&gt;&lt;/div&gt;" style="rounded=1;whiteSpace=wrap;html=1;" vertex="1" parent="1">
          <mxGeometry x="520" y="823.5" width="40" height="40" as="geometry" />
        </mxCell>
        <mxCell id="W9xBzJH1-ywO0qgSc_aa-30" value="&lt;font style=&quot;font-size: 6px;&quot;&gt;Фото&lt;/font&gt;&lt;div style=&quot;line-height: 0px;&quot;&gt;&lt;font style=&quot;font-size: 6px;&quot;&gt;кандидата&lt;/font&gt;&lt;/div&gt;" style="rounded=1;whiteSpace=wrap;html=1;" vertex="1" parent="1">
          <mxGeometry x="460" y="878.5" width="40" height="40" as="geometry" />
        </mxCell>
        <mxCell id="W9xBzJH1-ywO0qgSc_aa-31" value="&lt;font style=&quot;font-size: 6px;&quot;&gt;Фото&lt;/font&gt;&lt;div style=&quot;line-height: 0px;&quot;&gt;&lt;font style=&quot;font-size: 6px;&quot;&gt;кандидата&lt;/font&gt;&lt;/div&gt;" style="rounded=1;whiteSpace=wrap;html=1;" vertex="1" parent="1">
          <mxGeometry x="520" y="879.5" width="40" height="40" as="geometry" />
        </mxCell>
        <mxCell id="W9xBzJH1-ywO0qgSc_aa-32" style="edgeStyle=orthogonalEdgeStyle;rounded=0;orthogonalLoop=1;jettySize=auto;html=1;entryX=0;entryY=0.5;entryDx=0;entryDy=0;strokeColor=#FF3333;strokeWidth=2;" edge="1" parent="1" source="W9xBzJH1-ywO0qgSc_aa-33" target="W9xBzJH1-ywO0qgSc_aa-48">
          <mxGeometry relative="1" as="geometry" />
        </mxCell>
        <mxCell id="W9xBzJH1-ywO0qgSc_aa-33" value="" style="rounded=1;whiteSpace=wrap;html=1;fillColor=none;strokeColor=#FF3333;strokeWidth=2;" vertex="1" parent="1">
          <mxGeometry x="515" y="766" width="50" height="50" as="geometry" />
        </mxCell>
        <mxCell id="W9xBzJH1-ywO0qgSc_aa-34" style="edgeStyle=orthogonalEdgeStyle;rounded=0;orthogonalLoop=1;jettySize=auto;html=1;exitX=0.25;exitY=0;exitDx=0;exitDy=0;entryX=0.5;entryY=0;entryDx=0;entryDy=0;strokeWidth=2;" edge="1" parent="1" source="W9xBzJH1-ywO0qgSc_aa-35" target="W9xBzJH1-ywO0qgSc_aa-14">
          <mxGeometry relative="1" as="geometry" />
        </mxCell>
        <mxCell id="W9xBzJH1-ywO0qgSc_aa-35" value="" style="rounded=1;whiteSpace=wrap;html=1;strokeWidth=2;" vertex="1" parent="1">
          <mxGeometry x="630" y="740" width="130" height="210" as="geometry" />
        </mxCell>
        <mxCell id="W9xBzJH1-ywO0qgSc_aa-36" value="" style="rounded=1;whiteSpace=wrap;html=1;strokeWidth=2;" vertex="1" parent="1">
          <mxGeometry x="170" y="447" width="130" height="210" as="geometry" />
        </mxCell>
        <mxCell id="W9xBzJH1-ywO0qgSc_aa-37" value="&lt;font style=&quot;font-size: 9px;&quot;&gt;Предложить активность&lt;/font&gt;" style="text;strokeColor=default;align=center;fillColor=none;html=1;verticalAlign=middle;whiteSpace=wrap;rounded=0;" vertex="1" parent="1">
          <mxGeometry x="188.5" y="487" width="93" height="30" as="geometry" />
        </mxCell>
        <mxCell id="W9xBzJH1-ywO0qgSc_aa-38" value="&lt;font style=&quot;font-size: 9px;&quot;&gt;Поиск активности&lt;/font&gt;" style="text;strokeColor=default;align=center;fillColor=none;html=1;verticalAlign=middle;whiteSpace=wrap;rounded=0;" vertex="1" parent="1">
          <mxGeometry x="188.5" y="542" width="93" height="30" as="geometry" />
        </mxCell>
        <mxCell id="W9xBzJH1-ywO0qgSc_aa-39" value="&lt;font style=&quot;font-size: 9px;&quot;&gt;Мои активности&lt;/font&gt;" style="text;strokeColor=default;align=center;fillColor=none;html=1;verticalAlign=middle;whiteSpace=wrap;rounded=0;" vertex="1" parent="1">
          <mxGeometry x="188.5" y="603" width="93" height="30" as="geometry" />
        </mxCell>
        <mxCell id="W9xBzJH1-ywO0qgSc_aa-40" value="" style="rounded=0;whiteSpace=wrap;html=1;fillColor=none;strokeColor=#FF3333;strokeWidth=2;" vertex="1" parent="1">
          <mxGeometry x="185" y="482" width="100" height="40" as="geometry" />
        </mxCell>
        <mxCell id="W9xBzJH1-ywO0qgSc_aa-41" style="edgeStyle=orthogonalEdgeStyle;rounded=0;orthogonalLoop=1;jettySize=auto;html=1;exitX=0;exitY=0.5;exitDx=0;exitDy=0;entryX=0.407;entryY=-0.002;entryDx=0;entryDy=0;entryPerimeter=0;strokeColor=#FF3333;strokeWidth=2;" edge="1" parent="1" source="W9xBzJH1-ywO0qgSc_aa-40" target="W9xBzJH1-ywO0qgSc_aa-15">
          <mxGeometry relative="1" as="geometry" />
        </mxCell>
        <mxCell id="W9xBzJH1-ywO0qgSc_aa-42" value="" style="rounded=0;whiteSpace=wrap;html=1;fillColor=none;strokeColor=#FF3333;strokeWidth=2;" vertex="1" parent="1">
          <mxGeometry x="185" y="537" width="100" height="40" as="geometry" />
        </mxCell>
        <mxCell id="W9xBzJH1-ywO0qgSc_aa-43" value="" style="rounded=0;whiteSpace=wrap;html=1;fillColor=none;strokeColor=#FF3333;strokeWidth=2;" vertex="1" parent="1">
          <mxGeometry x="185" y="598" width="100" height="40" as="geometry" />
        </mxCell>
        <mxCell id="W9xBzJH1-ywO0qgSc_aa-44" style="edgeStyle=orthogonalEdgeStyle;rounded=0;orthogonalLoop=1;jettySize=auto;html=1;exitX=1;exitY=0.5;exitDx=0;exitDy=0;strokeColor=#FF3333;strokeWidth=2;entryX=0.615;entryY=0;entryDx=0;entryDy=0;entryPerimeter=0;" edge="1" parent="1" source="W9xBzJH1-ywO0qgSc_aa-42" target="W9xBzJH1-ywO0qgSc_aa-1">
          <mxGeometry relative="1" as="geometry">
            <mxPoint x="340" y="730" as="targetPoint" />
          </mxGeometry>
        </mxCell>
        <mxCell id="W9xBzJH1-ywO0qgSc_aa-45" value="Фото кандидата" style="rounded=0;whiteSpace=wrap;html=1;" vertex="1" parent="1">
          <mxGeometry x="640" y="770" width="110" height="90" as="geometry" />
        </mxCell>
        <mxCell id="W9xBzJH1-ywO0qgSc_aa-46" value="иду" style="rounded=1;whiteSpace=wrap;html=1;fillColor=#d5e8d4;strokeColor=#82b366;" vertex="1" parent="1">
          <mxGeometry x="640" y="900" width="50" height="20" as="geometry" />
        </mxCell>
        <mxCell id="W9xBzJH1-ywO0qgSc_aa-47" value="не иду" style="rounded=1;whiteSpace=wrap;html=1;fillColor=#f8cecc;strokeColor=#b85450;" vertex="1" parent="1">
          <mxGeometry x="700" y="899.5" width="50" height="20" as="geometry" />
        </mxCell>
        <mxCell id="W9xBzJH1-ywO0qgSc_aa-48" value="&lt;font size=&quot;1&quot;&gt;небольшая анкета кандидата&lt;/font&gt;" style="text;strokeColor=none;align=center;fillColor=none;html=1;verticalAlign=middle;whiteSpace=wrap;rounded=0;" vertex="1" parent="1">
          <mxGeometry x="630" y="860" width="120" height="30" as="geometry" />
        </mxCell>
        <mxCell id="W9xBzJH1-ywO0qgSc_aa-49" value="&lt;font style=&quot;font-size: 9px;&quot;&gt;назад&lt;/font&gt;" style="rounded=0;whiteSpace=wrap;html=1;fillColor=#dae8fc;strokeColor=#6c8ebf;" vertex="1" parent="1">
          <mxGeometry x="455" y="745" width="50" height="15" as="geometry" />
        </mxCell>
        <mxCell id="W9xBzJH1-ywO0qgSc_aa-50" value="&lt;font style=&quot;font-size: 9px;&quot;&gt;назад&lt;/font&gt;" style="rounded=0;whiteSpace=wrap;html=1;fillColor=#dae8fc;strokeColor=#6c8ebf;" vertex="1" parent="1">
          <mxGeometry x="640" y="747.5" width="50" height="15" as="geometry" />
        </mxCell>
        <mxCell id="W9xBzJH1-ywO0qgSc_aa-51" value="&lt;font style=&quot;font-size: 9px;&quot;&gt;назад&lt;/font&gt;" style="rounded=0;whiteSpace=wrap;html=1;fillColor=#dae8fc;strokeColor=#6c8ebf;" vertex="1" parent="1">
          <mxGeometry x="273" y="744.5" width="50" height="15" as="geometry" />
        </mxCell>
        <mxCell id="W9xBzJH1-ywO0qgSc_aa-52" value="&lt;font style=&quot;font-size: 9px;&quot;&gt;назад&lt;/font&gt;" style="rounded=0;whiteSpace=wrap;html=1;fillColor=#dae8fc;strokeColor=#6c8ebf;" vertex="1" parent="1">
          <mxGeometry x="100" y="745" width="50" height="15" as="geometry" />
        </mxCell>
        <mxCell id="W9xBzJH1-ywO0qgSc_aa-53" style="edgeStyle=orthogonalEdgeStyle;rounded=0;orthogonalLoop=1;jettySize=auto;html=1;exitX=0.25;exitY=0;exitDx=0;exitDy=0;entryX=0.5;entryY=0;entryDx=0;entryDy=0;strokeWidth=2;" edge="1" parent="1" source="W9xBzJH1-ywO0qgSc_aa-54" target="W9xBzJH1-ywO0qgSc_aa-36">
          <mxGeometry relative="1" as="geometry" />
        </mxCell>
        <mxCell id="W9xBzJH1-ywO0qgSc_aa-54" value="" style="rounded=1;whiteSpace=wrap;html=1;strokeWidth=2;" vertex="1" parent="1">
          <mxGeometry x="385" y="447" width="130" height="210" as="geometry" />
        </mxCell>
        <mxCell id="W9xBzJH1-ywO0qgSc_aa-55" value="&lt;div style=&quot;text-align: left;&quot;&gt;&lt;b style=&quot;font-size: x-small; background-color: initial;&quot;&gt;список активностей&lt;/b&gt;&lt;/div&gt;&lt;div style=&quot;text-align: left;&quot;&gt;&lt;b style=&quot;font-size: x-small; background-color: initial;&quot;&gt;&lt;br&gt;&lt;/b&gt;&lt;/div&gt;&lt;div style=&quot;text-align: left;&quot;&gt;&lt;font size=&quot;1&quot;&gt;&lt;b&gt;1. Поход в кино&lt;/b&gt;&lt;/font&gt;&lt;/div&gt;&lt;div style=&quot;text-align: left;&quot;&gt;&lt;font size=&quot;1&quot;&gt;&lt;b&gt;&lt;br&gt;&lt;/b&gt;&lt;/font&gt;&lt;/div&gt;&lt;div style=&quot;text-align: left;&quot;&gt;&lt;font size=&quot;1&quot;&gt;&lt;b&gt;2. Прогулка в парке на велосипеде&lt;/b&gt;&lt;/font&gt;&lt;/div&gt;&lt;div style=&quot;text-align: left;&quot;&gt;&lt;font size=&quot;1&quot;&gt;&lt;b&gt;&lt;br&gt;&lt;/b&gt;&lt;/font&gt;&lt;/div&gt;&lt;div style=&quot;text-align: left;&quot;&gt;&lt;font size=&quot;1&quot;&gt;&lt;b&gt;3. Посещение театра&lt;/b&gt;&lt;/font&gt;&lt;/div&gt;" style="text;strokeColor=none;align=center;fillColor=none;html=1;verticalAlign=middle;whiteSpace=wrap;rounded=0;" vertex="1" parent="1">
          <mxGeometry x="398" y="478" width="109" height="120" as="geometry" />
        </mxCell>
        <mxCell id="W9xBzJH1-ywO0qgSc_aa-56" style="edgeStyle=orthogonalEdgeStyle;rounded=0;orthogonalLoop=1;jettySize=auto;html=1;exitX=1;exitY=0.5;exitDx=0;exitDy=0;entryX=0.016;entryY=0.409;entryDx=0;entryDy=0;entryPerimeter=0;fontColor=#FF3333;strokeWidth=2;strokeColor=#FF3333;" edge="1" parent="1" source="W9xBzJH1-ywO0qgSc_aa-43" target="W9xBzJH1-ywO0qgSc_aa-54">
          <mxGeometry relative="1" as="geometry" />
        </mxCell>
        <mxCell id="W9xBzJH1-ywO0qgSc_aa-57" style="edgeStyle=orthogonalEdgeStyle;rounded=0;orthogonalLoop=1;jettySize=auto;html=1;exitX=0.25;exitY=0;exitDx=0;exitDy=0;entryX=0.75;entryY=0;entryDx=0;entryDy=0;strokeWidth=2;" edge="1" parent="1" source="W9xBzJH1-ywO0qgSc_aa-58" target="W9xBzJH1-ywO0qgSc_aa-54">
          <mxGeometry relative="1" as="geometry" />
        </mxCell>
        <mxCell id="W9xBzJH1-ywO0qgSc_aa-58" value="" style="rounded=1;whiteSpace=wrap;html=1;strokeWidth=2;" vertex="1" parent="1">
          <mxGeometry x="570" y="447" width="130" height="210" as="geometry" />
        </mxCell>
        <mxCell id="W9xBzJH1-ywO0qgSc_aa-59" value="&lt;div style=&quot;text-align: left;&quot;&gt;&lt;font size=&quot;1&quot;&gt;&lt;b&gt;Продробная информация об активности&lt;/b&gt;&lt;/font&gt;&lt;/div&gt;&lt;div style=&quot;text-align: left;&quot;&gt;&lt;font size=&quot;1&quot;&gt;&lt;b&gt;&lt;br&gt;&lt;/b&gt;&lt;/font&gt;&lt;/div&gt;&lt;div style=&quot;text-align: left;&quot;&gt;&lt;font size=&quot;1&quot;&gt;&lt;b&gt;Дата ___________&lt;/b&gt;&lt;/font&gt;&lt;/div&gt;&lt;div style=&quot;text-align: left;&quot;&gt;&lt;b style=&quot;font-size: x-small; background-color: initial;&quot;&gt;Время __________&lt;/b&gt;&lt;br&gt;&lt;/div&gt;&lt;div style=&quot;text-align: left;&quot;&gt;&lt;b style=&quot;font-size: x-small; background-color: initial;&quot;&gt;Место __________&lt;/b&gt;&lt;br&gt;&lt;/div&gt;&lt;div style=&quot;text-align: left;&quot;&gt;&lt;b style=&quot;font-size: x-small; background-color: initial;&quot;&gt;С кем иду данные _________________&lt;/b&gt;&lt;br&gt;&lt;/div&gt;" style="text;strokeColor=none;align=center;fillColor=none;html=1;verticalAlign=middle;whiteSpace=wrap;rounded=0;" vertex="1" parent="1">
          <mxGeometry x="588" y="487" width="98" height="120" as="geometry" />
        </mxCell>
        <mxCell id="W9xBzJH1-ywO0qgSc_aa-60" value="Отменить" style="rounded=1;whiteSpace=wrap;html=1;fillColor=#f8cecc;strokeColor=#b85450;" vertex="1" parent="1">
          <mxGeometry x="590" y="624" width="90" height="20" as="geometry" />
        </mxCell>
        <mxCell id="W9xBzJH1-ywO0qgSc_aa-61" value="&lt;font style=&quot;font-size: 9px;&quot;&gt;назад&lt;/font&gt;" style="rounded=0;whiteSpace=wrap;html=1;fillColor=#dae8fc;strokeColor=#6c8ebf;" vertex="1" parent="1">
          <mxGeometry x="582" y="458" width="50" height="15" as="geometry" />
        </mxCell>
        <mxCell id="W9xBzJH1-ywO0qgSc_aa-62" style="edgeStyle=orthogonalEdgeStyle;rounded=0;orthogonalLoop=1;jettySize=auto;html=1;entryX=0;entryY=0.5;entryDx=0;entryDy=0;strokeColor=#FF3333;strokeWidth=2;" edge="1" parent="1" source="W9xBzJH1-ywO0qgSc_aa-63" target="W9xBzJH1-ywO0qgSc_aa-58">
          <mxGeometry relative="1" as="geometry" />
        </mxCell>
        <mxCell id="W9xBzJH1-ywO0qgSc_aa-63" value="" style="rounded=1;whiteSpace=wrap;html=1;fillColor=none;strokeColor=#FF3333;strokeWidth=2;" vertex="1" parent="1">
          <mxGeometry x="394" y="533" width="116" height="40" as="geometry" />
        </mxCell>
        <mxCell id="W9xBzJH1-ywO0qgSc_aa-64" style="edgeStyle=orthogonalEdgeStyle;rounded=0;orthogonalLoop=1;jettySize=auto;html=1;exitX=0.194;exitY=-0.001;exitDx=0;exitDy=0;entryX=0.89;entryY=1.004;entryDx=0;entryDy=0;entryPerimeter=0;strokeWidth=2;exitPerimeter=0;" edge="1" parent="1" source="W9xBzJH1-ywO0qgSc_aa-1" target="W9xBzJH1-ywO0qgSc_aa-36">
          <mxGeometry relative="1" as="geometry" />
        </mxCell>
        <mxCell id="W9xBzJH1-ywO0qgSc_aa-65" style="edgeStyle=orthogonalEdgeStyle;rounded=0;orthogonalLoop=1;jettySize=auto;html=1;exitX=0.75;exitY=0;exitDx=0;exitDy=0;entryX=0.131;entryY=1.004;entryDx=0;entryDy=0;entryPerimeter=0;strokeWidth=2;" edge="1" parent="1" source="W9xBzJH1-ywO0qgSc_aa-15" target="W9xBzJH1-ywO0qgSc_aa-36">
          <mxGeometry relative="1" as="geometry" />
        </mxCell>
        <mxCell id="W9xBzJH1-ywO0qgSc_aa-66" value="&lt;font style=&quot;font-size: 9px;&quot;&gt;назад&lt;/font&gt;" style="rounded=0;whiteSpace=wrap;html=1;fillColor=#dae8fc;strokeColor=#6c8ebf;" vertex="1" parent="1">
          <mxGeometry x="398" y="458" width="50" height="15" as="geometry" />
        </mxCell>
        <mxCell id="W9xBzJH1-ywO0qgSc_aa-67" value="ЭКРАН 1" style="rounded=0;whiteSpace=wrap;html=1;strokeColor=none;" vertex="1" parent="1">
          <mxGeometry x="202.5" y="670" width="65" height="20" as="geometry" />
        </mxCell>
        <mxCell id="W9xBzJH1-ywO0qgSc_aa-68" value="ЭКРАН 2" style="rounded=0;whiteSpace=wrap;html=1;strokeColor=none;" vertex="1" parent="1">
          <mxGeometry x="120" y="960" width="65" height="20" as="geometry" />
        </mxCell>
        <mxCell id="W9xBzJH1-ywO0qgSc_aa-69" value="ЭКРАН 3а" style="rounded=0;whiteSpace=wrap;html=1;strokeColor=none;" vertex="1" parent="1">
          <mxGeometry x="290" y="960" width="65" height="20" as="geometry" />
        </mxCell>
        <mxCell id="W9xBzJH1-ywO0qgSc_aa-70" value="ЭКРАН 3б" style="rounded=0;whiteSpace=wrap;html=1;strokeColor=none;" vertex="1" parent="1">
          <mxGeometry x="470" y="960" width="65" height="20" as="geometry" />
        </mxCell>
        <mxCell id="W9xBzJH1-ywO0qgSc_aa-71" value="ЭКРАН 3в" style="rounded=0;whiteSpace=wrap;html=1;strokeColor=none;" vertex="1" parent="1">
          <mxGeometry x="662.5" y="960" width="65" height="20" as="geometry" />
        </mxCell>
        <mxCell id="W9xBzJH1-ywO0qgSc_aa-72" value="ЭКРАН 4б" style="rounded=0;whiteSpace=wrap;html=1;strokeColor=none;" vertex="1" parent="1">
          <mxGeometry x="603.5" y="661" width="65" height="20" as="geometry" />
        </mxCell>
        <mxCell id="W9xBzJH1-ywO0qgSc_aa-73" value="ЭКРАН 4а" style="rounded=0;whiteSpace=wrap;html=1;strokeColor=none;" vertex="1" parent="1">
          <mxGeometry x="415" y="662" width="65" height="20" as="geometry" />
        </mxCell>
        <UserObject label="&lt;div class=&quot;markdown-heading&quot; dir=&quot;auto&quot; style=&quot;box-sizing: border-box; position: relative; margin-top: 0px !important; color: rgb(31, 35, 40); font-family: -apple-system, &amp;quot;system-ui&amp;quot;, &amp;quot;Segoe UI&amp;quot;, &amp;quot;Noto Sans&amp;quot;, Helvetica, Arial, sans-serif, &amp;quot;Apple Color Emoji&amp;quot;, &amp;quot;Segoe UI Emoji&amp;quot;; font-size: 16px; font-style: normal; font-variant-ligatures: normal; font-variant-caps: normal; font-weight: 400; letter-spacing: normal; orphans: 2; text-align: start; text-indent: 0px; text-transform: none; widows: 2; word-spacing: 0px; -webkit-text-stroke-width: 0px; white-space: normal; background-color: rgb(255, 255, 255); text-decoration-thickness: initial; text-decoration-style: initial; text-decoration-color: initial;&quot;&gt;&lt;h3 tabindex=&quot;-1&quot; class=&quot;heading-element&quot; dir=&quot;auto&quot; style=&quot;box-sizing: border-box; margin-top: 0px !important; margin-bottom: var(--base-size-16); font-size: 1.25em; font-weight: var(--base-text-weight-semibold, 600); line-height: 1.25;&quot;&gt;User Story&lt;/h3&gt;&lt;a id=&quot;user-content-user-story&quot; class=&quot;anchor&quot; aria-label=&quot;Permalink: User Story&quot; href=&quot;https://github.com/abdullahproff/BSA21_1/blob/main/Kolykhalova_Elena/task_01_user_story.md#user-story&quot; style=&quot;box-sizing: border-box; background-color: transparent; color: var(--fgColor-accent, var(--color-accent-fg)); text-decoration: underline; float: left; padding-right: var(--base-size-4); margin: auto; line-height: 1; position: absolute; top: 12.5px; left: -28px; display: flex; width: 28px; height: 28px; border-radius: var(--borderRadius-medium); opacity: 0; justify-content: center; align-items: center; transform: translateY(-50%); text-underline-offset: 0.2rem;&quot;&gt;&lt;svg class=&quot;octicon octicon-link&quot; viewBox=&quot;0 0 16 16&quot; version=&quot;1.1&quot; width=&quot;16&quot; height=&quot;16&quot; aria-hidden=&quot;true&quot;&gt;&lt;path d=&quot;m7.775 3.275 1.25-1.25a3.5 3.5 0 1 1 4.95 4.95l-2.5 2.5a3.5 3.5 0 0 1-4.95 0 .751.751 0 0 1 .018-1.042.751.751 0 0 1 1.042-.018 1.998 1.998 0 0 0 2.83 0l2.5-2.5a2.002 2.002 0 0 0-2.83-2.83l-1.25 1.25a.751.751 0 0 1-1.042-.018.751.751 0 0 1-.018-1.042Zm-4.69 9.64a1.998 1.998 0 0 0 2.83 0l1.25-1.25a.751.751 0 0 1 1.042.018.751.751 0 0 1 .018 1.042l-1.25 1.25a3.5 3.5 0 1 1-4.95-4.95l2.5-2.5a3.5 3.5 0 0 1 4.95 0 .751.751 0 0 1-.018 1.042.751.751 0 0 1-1.042.018 1.998 1.998 0 0 0-2.83 0l-2.5 2.5a1.998 1.998 0 0 0 0 2.83Z&quot;&gt;&lt;/path&gt;&lt;/svg&gt;&lt;/a&gt;&lt;/div&gt;&lt;p dir=&quot;auto&quot; style=&quot;box-sizing: border-box; margin-top: 0px; margin-bottom: var(--base-size-16); color: rgb(31, 35, 40); font-family: -apple-system, &amp;quot;system-ui&amp;quot;, &amp;quot;Segoe UI&amp;quot;, &amp;quot;Noto Sans&amp;quot;, Helvetica, Arial, sans-serif, &amp;quot;Apple Color Emoji&amp;quot;, &amp;quot;Segoe UI Emoji&amp;quot;; font-size: 16px; font-style: normal; font-variant-ligatures: normal; font-variant-caps: normal; font-weight: 400; letter-spacing: normal; orphans: 2; text-align: start; text-indent: 0px; text-transform: none; widows: 2; word-spacing: 0px; -webkit-text-stroke-width: 0px; white-space: normal; background-color: rgb(255, 255, 255); text-decoration-thickness: initial; text-decoration-style: initial; text-decoration-color: initial;&quot;&gt;Я, как пользователь приложения знакомств,&lt;/p&gt;&lt;p dir=&quot;auto&quot; style=&quot;box-sizing: border-box; margin-top: 0px; margin-bottom: 0px !important; color: rgb(31, 35, 40); font-family: -apple-system, &amp;quot;system-ui&amp;quot;, &amp;quot;Segoe UI&amp;quot;, &amp;quot;Noto Sans&amp;quot;, Helvetica, Arial, sans-serif, &amp;quot;Apple Color Emoji&amp;quot;, &amp;quot;Segoe UI Emoji&amp;quot;; font-size: 16px; font-style: normal; font-variant-ligatures: normal; font-variant-caps: normal; font-weight: 400; letter-spacing: normal; orphans: 2; text-align: start; text-indent: 0px; text-transform: none; widows: 2; word-spacing: 0px; -webkit-text-stroke-width: 0px; white-space: normal; background-color: rgb(255, 255, 255); text-decoration-thickness: initial; text-decoration-style: initial; text-decoration-color: initial;&quot;&gt;хочу иметь возможность выбрать интересующую меня активность на определенный день (велопрогулка, поход в кино, настолки и т.д.), чтобы найти людей с похожими интересами, с которыми можно провести время и заодно познакомиться.&lt;/p&gt;" link="&lt;div class=&quot;markdown-heading&quot; dir=&quot;auto&quot; style=&quot;box-sizing: border-box; position: relative; margin-top: 0px !important; color: rgb(31, 35, 40); font-family: -apple-system, &amp;quot;system-ui&amp;quot;, &amp;quot;Segoe UI&amp;quot;, &amp;quot;Noto Sans&amp;quot;, Helvetica, Arial, sans-serif, &amp;quot;Apple Color Emoji&amp;quot;, &amp;quot;Segoe UI Emoji&amp;quot;; font-size: 16px; font-style: normal; font-variant-ligatures: normal; font-variant-caps: normal; font-weight: 400; letter-spacing: normal; orphans: 2; text-align: start; text-indent: 0px; text-transform: none; widows: 2; word-spacing: 0px; -webkit-text-stroke-width: 0px; white-space: normal; background-color: rgb(255, 255, 255); text-decoration-thickness: initial; text-decoration-style: initial; text-decoration-color: initial;&quot;&gt;&lt;h3 tabindex=&quot;-1&quot; class=&quot;heading-element&quot; dir=&quot;auto&quot; style=&quot;box-sizing: border-box; margin-top: 0px !important; margin-bottom: var(--base-size-16); font-size: 1.25em; font-weight: var(--base-text-weight-semibold, 600); line-height: 1.25;&quot;&gt;User Story&lt;/h3&gt;&lt;a id=&quot;user-content-user-story&quot; class=&quot;anchor&quot; aria-label=&quot;Permalink: User Story&quot; href=&quot;https://github.com/abdullahproff/BSA21_1/blob/main/Kolykhalova_Elena/task_01_user_story.md#user-story&quot; style=&quot;box-sizing: border-box; background-color: transparent; color: var(--fgColor-accent, var(--color-accent-fg)); text-decoration: underline; float: left; padding-right: var(--base-size-4); margin: auto; line-height: 1; position: absolute; top: 12.5px; left: -28px; display: flex; width: 28px; height: 28px; border-radius: var(--borderRadius-medium); opacity: 0; justify-content: center; align-items: center; transform: translateY(-50%); text-underline-offset: 0.2rem;&quot;&gt;&lt;svg class=&quot;octicon octicon-link&quot; viewBox=&quot;0 0 16 16&quot; version=&quot;1.1&quot; width=&quot;16&quot; height=&quot;16&quot; aria-hidden=&quot;true&quot;&gt;&lt;path d=&quot;m7.775 3.275 1.25-1.25a3.5 3.5 0 1 1 4.95 4.95l-2.5 2.5a3.5 3.5 0 0 1-4.95 0 .751.751 0 0 1 .018-1.042.751.751 0 0 1 1.042-.018 1.998 1.998 0 0 0 2.83 0l2.5-2.5a2.002 2.002 0 0 0-2.83-2.83l-1.25 1.25a.751.751 0 0 1-1.042-.018.751.751 0 0 1-.018-1.042Zm-4.69 9.64a1.998 1.998 0 0 0 2.83 0l1.25-1.25a.751.751 0 0 1 1.042.018.751.751 0 0 1 .018 1.042l-1.25 1.25a3.5 3.5 0 1 1-4.95-4.95l2.5-2.5a3.5 3.5 0 0 1 4.95 0 .751.751 0 0 1-.018 1.042.751.751 0 0 1-1.042.018 1.998 1.998 0 0 0-2.83 0l-2.5 2.5a1.998 1.998 0 0 0 0 2.83Z&quot;&gt;&lt;/path&gt;&lt;/svg&gt;&lt;/a&gt;&lt;/div&gt;&lt;p dir=&quot;auto&quot; style=&quot;box-sizing: border-box; margin-top: 0px; margin-bottom: var(--base-size-16); color: rgb(31, 35, 40); font-family: -apple-system, &amp;quot;system-ui&amp;quot;, &amp;quot;Segoe UI&amp;quot;, &amp;quot;Noto Sans&amp;quot;, Helvetica, Arial, sans-serif, &amp;quot;Apple Color Emoji&amp;quot;, &amp;quot;Segoe UI Emoji&amp;quot;; font-size: 16px; font-style: normal; font-variant-ligatures: normal; font-variant-caps: normal; font-weight: 400; letter-spacing: normal; orphans: 2; text-align: start; text-indent: 0px; text-transform: none; widows: 2; word-spacing: 0px; -webkit-text-stroke-width: 0px; white-space: normal; background-color: rgb(255, 255, 255); text-decoration-thickness: initial; text-decoration-style: initial; text-decoration-color: initial;&quot;&gt;Я, как пользователь приложения знакомств,&lt;/p&gt;&lt;p dir=&quot;auto&quot; style=&quot;box-sizing: border-box; margin-top: 0px; margin-bottom: 0px !important; color: rgb(31, 35, 40); font-family: -apple-system, &amp;quot;system-ui&amp;quot;, &amp;quot;Segoe UI&amp;quot;, &amp;quot;Noto Sans&amp;quot;, Helvetica, Arial, sans-serif, &amp;quot;Apple Color Emoji&amp;quot;, &amp;quot;Segoe UI Emoji&amp;quot;; font-size: 16px; font-style: normal; font-variant-ligatures: normal; font-variant-caps: normal; font-weight: 400; letter-spacing: normal; orphans: 2; text-align: start; text-indent: 0px; text-transform: none; widows: 2; word-spacing: 0px; -webkit-text-stroke-width: 0px; white-space: normal; background-color: rgb(255, 255, 255); text-decoration-thickness: initial; text-decoration-style: initial; text-decoration-color: initial;&quot;&gt;хочу иметь возможность выбрать интересующую меня активность на определенный день (велопрогулка, поход в кино, настолки и т.д.), чтобы найти людей с похожими интересами, с которыми можно провести время и заодно познакомиться.&lt;/p&gt;" id="W9xBzJH1-ywO0qgSc_aa-74">
          <mxCell style="text;whiteSpace=wrap;html=1;" vertex="1" parent="1">
            <mxGeometry x="126" y="170" width="560" height="140" as="geometry" />
          </mxCell>
        </UserObject>
      </root>
    </mxGraphModel>
  </diagram>
  <diagram id="_zOoXTCPepxsqyStrGZS" name="USER_CASE">
    <mxGraphModel dx="1116" dy="886" grid="1" gridSize="10" guides="1" tooltips="1" connect="1" arrows="1" fold="1" page="1" pageScale="1" pageWidth="827" pageHeight="1169" math="0" shadow="0">
      <root>
        <mxCell id="0" />
        <mxCell id="1" parent="0" />
        <mxCell id="kmNXpux6cvh7I5eWKmgd-1" value="" style="shape=table;startSize=0;container=1;collapsible=0;childLayout=tableLayout;" vertex="1" parent="1">
          <mxGeometry x="150" y="245" width="600" height="680" as="geometry" />
        </mxCell>
        <mxCell id="kmNXpux6cvh7I5eWKmgd-2" value="" style="shape=tableRow;horizontal=0;startSize=0;swimlaneHead=0;swimlaneBody=0;strokeColor=inherit;top=0;left=0;bottom=0;right=0;collapsible=0;dropTarget=0;fillColor=none;points=[[0,0.5],[1,0.5]];portConstraint=eastwest;" vertex="1" parent="kmNXpux6cvh7I5eWKmgd-1">
          <mxGeometry width="600" height="40" as="geometry" />
        </mxCell>
        <mxCell id="kmNXpux6cvh7I5eWKmgd-3" value="&lt;b&gt;Заголовок&lt;/b&gt;" style="shape=partialRectangle;html=1;whiteSpace=wrap;connectable=0;strokeColor=inherit;overflow=hidden;fillColor=none;top=0;left=0;bottom=0;right=0;pointerEvents=1;" vertex="1" parent="kmNXpux6cvh7I5eWKmgd-2">
          <mxGeometry width="160" height="40" as="geometry">
            <mxRectangle width="160" height="40" as="alternateBounds" />
          </mxGeometry>
        </mxCell>
        <mxCell id="kmNXpux6cvh7I5eWKmgd-4" value="Поиск / создание активностей на сайте знакомств (СЗ)" style="shape=partialRectangle;html=1;whiteSpace=wrap;connectable=0;strokeColor=inherit;overflow=hidden;fillColor=none;top=0;left=0;bottom=0;right=0;pointerEvents=1;spacingLeft=7;spacingRight=7;" vertex="1" parent="kmNXpux6cvh7I5eWKmgd-2">
          <mxGeometry x="160" width="440" height="40" as="geometry">
            <mxRectangle width="440" height="40" as="alternateBounds" />
          </mxGeometry>
        </mxCell>
        <mxCell id="kmNXpux6cvh7I5eWKmgd-5" value="" style="shape=tableRow;horizontal=0;startSize=0;swimlaneHead=0;swimlaneBody=0;strokeColor=inherit;top=0;left=0;bottom=0;right=0;collapsible=0;dropTarget=0;fillColor=none;points=[[0,0.5],[1,0.5]];portConstraint=eastwest;" vertex="1" parent="kmNXpux6cvh7I5eWKmgd-1">
          <mxGeometry y="40" width="600" height="40" as="geometry" />
        </mxCell>
        <mxCell id="kmNXpux6cvh7I5eWKmgd-6" value="&lt;b&gt;Акторы&lt;/b&gt;" style="shape=partialRectangle;html=1;whiteSpace=wrap;connectable=0;strokeColor=inherit;overflow=hidden;fillColor=none;top=0;left=0;bottom=0;right=0;pointerEvents=1;" vertex="1" parent="kmNXpux6cvh7I5eWKmgd-5">
          <mxGeometry width="160" height="40" as="geometry">
            <mxRectangle width="160" height="40" as="alternateBounds" />
          </mxGeometry>
        </mxCell>
        <mxCell id="kmNXpux6cvh7I5eWKmgd-7" value="Клиент" style="shape=partialRectangle;html=1;whiteSpace=wrap;connectable=0;strokeColor=inherit;overflow=hidden;fillColor=none;top=0;left=0;bottom=0;right=0;pointerEvents=1;spacingLeft=7;spacingRight=7;" vertex="1" parent="kmNXpux6cvh7I5eWKmgd-5">
          <mxGeometry x="160" width="440" height="40" as="geometry">
            <mxRectangle width="440" height="40" as="alternateBounds" />
          </mxGeometry>
        </mxCell>
        <mxCell id="kmNXpux6cvh7I5eWKmgd-8" value="" style="shape=tableRow;horizontal=0;startSize=0;swimlaneHead=0;swimlaneBody=0;strokeColor=inherit;top=0;left=0;bottom=0;right=0;collapsible=0;dropTarget=0;fillColor=none;points=[[0,0.5],[1,0.5]];portConstraint=eastwest;" vertex="1" parent="kmNXpux6cvh7I5eWKmgd-1">
          <mxGeometry y="80" width="600" height="40" as="geometry" />
        </mxCell>
        <mxCell id="kmNXpux6cvh7I5eWKmgd-9" value="&lt;b&gt;Предусловие&lt;/b&gt;" style="shape=partialRectangle;html=1;whiteSpace=wrap;connectable=0;strokeColor=inherit;overflow=hidden;fillColor=none;top=0;left=0;bottom=0;right=0;pointerEvents=1;" vertex="1" parent="kmNXpux6cvh7I5eWKmgd-8">
          <mxGeometry width="160" height="40" as="geometry">
            <mxRectangle width="160" height="40" as="alternateBounds" />
          </mxGeometry>
        </mxCell>
        <mxCell id="kmNXpux6cvh7I5eWKmgd-10" value="Клиент зарегистрирован и авторизован в приложении СЗ" style="shape=partialRectangle;html=1;whiteSpace=wrap;connectable=0;strokeColor=inherit;overflow=hidden;fillColor=none;top=0;left=0;bottom=0;right=0;pointerEvents=1;spacingLeft=7;spacingRight=7;" vertex="1" parent="kmNXpux6cvh7I5eWKmgd-8">
          <mxGeometry x="160" width="440" height="40" as="geometry">
            <mxRectangle width="440" height="40" as="alternateBounds" />
          </mxGeometry>
        </mxCell>
        <mxCell id="kmNXpux6cvh7I5eWKmgd-11" value="" style="shape=tableRow;horizontal=0;startSize=0;swimlaneHead=0;swimlaneBody=0;strokeColor=inherit;top=0;left=0;bottom=0;right=0;collapsible=0;dropTarget=0;fillColor=none;points=[[0,0.5],[1,0.5]];portConstraint=eastwest;" vertex="1" parent="kmNXpux6cvh7I5eWKmgd-1">
          <mxGeometry y="120" width="600" height="60" as="geometry" />
        </mxCell>
        <mxCell id="kmNXpux6cvh7I5eWKmgd-12" value="&lt;b&gt;Ограничения&lt;/b&gt;" style="shape=partialRectangle;html=1;whiteSpace=wrap;connectable=0;strokeColor=inherit;overflow=hidden;fillColor=none;top=0;left=0;bottom=0;right=0;pointerEvents=1;" vertex="1" parent="kmNXpux6cvh7I5eWKmgd-11">
          <mxGeometry width="160" height="60" as="geometry">
            <mxRectangle width="160" height="60" as="alternateBounds" />
          </mxGeometry>
        </mxCell>
        <mxCell id="kmNXpux6cvh7I5eWKmgd-13" value="Можно выбирать участвовать или создавать не более 3 активностей в день, количество участников в одной активности не более 6" style="shape=partialRectangle;html=1;whiteSpace=wrap;connectable=0;strokeColor=inherit;overflow=hidden;fillColor=none;top=0;left=0;bottom=0;right=0;pointerEvents=1;spacingLeft=7;spacingRight=7;" vertex="1" parent="kmNXpux6cvh7I5eWKmgd-11">
          <mxGeometry x="160" width="440" height="60" as="geometry">
            <mxRectangle width="440" height="60" as="alternateBounds" />
          </mxGeometry>
        </mxCell>
        <mxCell id="kmNXpux6cvh7I5eWKmgd-14" value="" style="shape=tableRow;horizontal=0;startSize=0;swimlaneHead=0;swimlaneBody=0;strokeColor=inherit;top=0;left=0;bottom=0;right=0;collapsible=0;dropTarget=0;fillColor=none;points=[[0,0.5],[1,0.5]];portConstraint=eastwest;" vertex="1" parent="kmNXpux6cvh7I5eWKmgd-1">
          <mxGeometry y="180" width="600" height="40" as="geometry" />
        </mxCell>
        <mxCell id="kmNXpux6cvh7I5eWKmgd-15" value="&lt;b&gt;Триггер&lt;/b&gt;" style="shape=partialRectangle;html=1;whiteSpace=wrap;connectable=0;strokeColor=inherit;overflow=hidden;fillColor=none;top=0;left=0;bottom=0;right=0;pointerEvents=1;" vertex="1" parent="kmNXpux6cvh7I5eWKmgd-14">
          <mxGeometry width="160" height="40" as="geometry">
            <mxRectangle width="160" height="40" as="alternateBounds" />
          </mxGeometry>
        </mxCell>
        <mxCell id="kmNXpux6cvh7I5eWKmgd-16" value="Клиент нажимает кнопку&amp;nbsp;&lt;div&gt;&quot;ПОИСК АКТИВНОСТЬ&quot; / &quot;ПРЕДЛОЖИТЬ АКТИВНОСТЬ&quot;&lt;/div&gt;" style="shape=partialRectangle;html=1;whiteSpace=wrap;connectable=0;strokeColor=inherit;overflow=hidden;fillColor=none;top=0;left=0;bottom=0;right=0;pointerEvents=1;spacingLeft=7;spacingRight=7;" vertex="1" parent="kmNXpux6cvh7I5eWKmgd-14">
          <mxGeometry x="160" width="440" height="40" as="geometry">
            <mxRectangle width="440" height="40" as="alternateBounds" />
          </mxGeometry>
        </mxCell>
        <mxCell id="kmNXpux6cvh7I5eWKmgd-17" value="" style="shape=tableRow;horizontal=0;startSize=0;swimlaneHead=0;swimlaneBody=0;strokeColor=inherit;top=0;left=0;bottom=0;right=0;collapsible=0;dropTarget=0;fillColor=none;points=[[0,0.5],[1,0.5]];portConstraint=eastwest;" vertex="1" parent="kmNXpux6cvh7I5eWKmgd-1">
          <mxGeometry y="220" width="600" height="190" as="geometry" />
        </mxCell>
        <mxCell id="kmNXpux6cvh7I5eWKmgd-18" value="&lt;b&gt;Основной сценарий&lt;/b&gt;" style="shape=partialRectangle;html=1;whiteSpace=wrap;connectable=0;strokeColor=inherit;overflow=hidden;fillColor=none;top=0;left=0;bottom=0;right=0;pointerEvents=1;" vertex="1" parent="kmNXpux6cvh7I5eWKmgd-17">
          <mxGeometry width="160" height="190" as="geometry">
            <mxRectangle width="160" height="190" as="alternateBounds" />
          </mxGeometry>
        </mxCell>
        <mxCell id="kmNXpux6cvh7I5eWKmgd-19" value="&lt;ol style=&quot;text-align: left;&quot;&gt;&lt;li&gt;Система отображает форму &lt;b&gt;поиска активности&lt;/b&gt; (экран 3а)&lt;/li&gt;&lt;li&gt;Клиент вводит данные активности&lt;/li&gt;&lt;li&gt;Система отображает экран людей, которые предложили интересующую активность (экран 3б)&lt;/li&gt;&lt;li&gt;Клиент выбирает понравившегося человека&lt;/li&gt;&lt;li&gt;Система отображает анкету человека (экран 3в)&lt;/li&gt;&lt;li&gt;Клиент соглашается идти с этим человеком на активность.&lt;/li&gt;&lt;li&gt;Система записывает активность в список активностей&lt;/li&gt;&lt;/ol&gt;&lt;b style=&quot;background-color: initial;&quot;&gt;&lt;div style=&quot;text-align: left;&quot;&gt;&lt;b style=&quot;background-color: initial;&quot;&gt;&lt;span style=&quot;white-space: pre;&quot;&gt;&#x9;&lt;/span&gt;&lt;/b&gt;&lt;b style=&quot;background-color: initial; text-align: center;&quot;&gt;Критерий успеха:&amp;nbsp;&lt;/b&gt;&lt;span style=&quot;background-color: initial; font-weight: normal; text-align: center;&quot;&gt;Человек нашел людей по интересам, для приятного время препровождения.&lt;/span&gt;&lt;/div&gt;&lt;/b&gt;" style="shape=partialRectangle;html=1;whiteSpace=wrap;connectable=0;strokeColor=inherit;overflow=hidden;fillColor=none;top=0;left=0;bottom=0;right=0;pointerEvents=1;spacingLeft=7;spacingRight=7;" vertex="1" parent="kmNXpux6cvh7I5eWKmgd-17">
          <mxGeometry x="160" width="440" height="190" as="geometry">
            <mxRectangle width="440" height="190" as="alternateBounds" />
          </mxGeometry>
        </mxCell>
        <mxCell id="kmNXpux6cvh7I5eWKmgd-20" value="" style="shape=tableRow;horizontal=0;startSize=0;swimlaneHead=0;swimlaneBody=0;strokeColor=inherit;top=0;left=0;bottom=0;right=0;collapsible=0;dropTarget=0;fillColor=none;points=[[0,0.5],[1,0.5]];portConstraint=eastwest;" vertex="1" parent="kmNXpux6cvh7I5eWKmgd-1">
          <mxGeometry y="410" width="600" height="170" as="geometry" />
        </mxCell>
        <mxCell id="kmNXpux6cvh7I5eWKmgd-21" value="&lt;b&gt;Альтернативный сценарий&lt;/b&gt;" style="shape=partialRectangle;html=1;whiteSpace=wrap;connectable=0;strokeColor=inherit;overflow=hidden;fillColor=none;top=0;left=0;bottom=0;right=0;pointerEvents=1;" vertex="1" parent="kmNXpux6cvh7I5eWKmgd-20">
          <mxGeometry width="160" height="170" as="geometry">
            <mxRectangle width="160" height="170" as="alternateBounds" />
          </mxGeometry>
        </mxCell>
        <mxCell id="kmNXpux6cvh7I5eWKmgd-22" value="&lt;span style=&quot;background-color: initial;&quot;&gt;&lt;span style=&quot;white-space: pre;&quot;&gt;&#x9;&lt;/span&gt;1. Система отображает форму &lt;b&gt;Предложить активность&lt;/b&gt; (экран 2)&lt;/span&gt;&lt;div&gt;&lt;span style=&quot;background-color: initial;&quot;&gt;&lt;span style=&quot;white-space: pre;&quot;&gt;&#x9;&lt;/span&gt;2. Клиент вводит параметры активности и нажимает кнопку &lt;b&gt;Опубликовать&lt;/b&gt;&lt;/span&gt;&lt;/div&gt;&lt;div&gt;&lt;span style=&quot;background-color: initial;&quot;&gt;&lt;span style=&quot;white-space: pre;&quot;&gt;&#x9;&lt;/span&gt;3. Система размещает активность и заносит ее в список активностей в личном кабинете (экран 4а)&lt;br&gt;&lt;/span&gt;&lt;/div&gt;&lt;div&gt;&lt;span style=&quot;background-color: initial;&quot;&gt;&lt;span style=&quot;white-space: pre;&quot;&gt;&#x9;&lt;/span&gt;4. Клиент ожидает отклика от других пользователей&lt;br&gt;&lt;/span&gt;&lt;/div&gt;&lt;div&gt;&lt;br&gt;&lt;/div&gt;&lt;div&gt;&lt;b style=&quot;background-color: initial; text-align: center;&quot;&gt;&lt;span style=&quot;white-space: pre;&quot;&gt;&#x9;&lt;/span&gt;Критерий успеха: &lt;/b&gt;&lt;span style=&quot;background-color: initial; text-align: center;&quot;&gt;Человек получил отклик на свою активность, произошел матч, люди приятно провели время.&lt;/span&gt;&lt;/div&gt;" style="shape=partialRectangle;html=1;whiteSpace=wrap;connectable=0;strokeColor=inherit;overflow=hidden;fillColor=none;top=0;left=0;bottom=0;right=0;pointerEvents=1;align=left;spacingLeft=7;spacingRight=7;" vertex="1" parent="kmNXpux6cvh7I5eWKmgd-20">
          <mxGeometry x="160" width="440" height="170" as="geometry">
            <mxRectangle width="440" height="170" as="alternateBounds" />
          </mxGeometry>
        </mxCell>
        <mxCell id="kmNXpux6cvh7I5eWKmgd-23" value="" style="shape=tableRow;horizontal=0;startSize=0;swimlaneHead=0;swimlaneBody=0;strokeColor=inherit;top=0;left=0;bottom=0;right=0;collapsible=0;dropTarget=0;fillColor=none;points=[[0,0.5],[1,0.5]];portConstraint=eastwest;" vertex="1" parent="kmNXpux6cvh7I5eWKmgd-1">
          <mxGeometry y="580" width="600" height="100" as="geometry" />
        </mxCell>
        <mxCell id="kmNXpux6cvh7I5eWKmgd-24" value="&lt;b&gt;Исключительный сценарий&lt;/b&gt;" style="shape=partialRectangle;html=1;whiteSpace=wrap;connectable=0;strokeColor=inherit;overflow=hidden;fillColor=none;top=0;left=0;bottom=0;right=0;pointerEvents=1;" vertex="1" parent="kmNXpux6cvh7I5eWKmgd-23">
          <mxGeometry width="160" height="100" as="geometry">
            <mxRectangle width="160" height="100" as="alternateBounds" />
          </mxGeometry>
        </mxCell>
        <mxCell id="kmNXpux6cvh7I5eWKmgd-25" value="&lt;div style=&quot;text-align: left;&quot;&gt;&lt;span style=&quot;background-color: initial;&quot;&gt;&lt;span style=&quot;white-space: pre;&quot;&gt;&#x9;&lt;/span&gt;3а. Система не находит людей по заданным параметрам и предлагает или поменять условия поиска или создать свою активность&lt;/span&gt;&lt;/div&gt;&lt;div&gt;&lt;span style=&quot;text-align: left;&quot;&gt;&lt;br&gt;&lt;/span&gt;&lt;/div&gt;&lt;div style=&quot;text-align: left;&quot;&gt;&lt;b style=&quot;background-color: initial;&quot;&gt;&lt;span style=&quot;white-space: pre;&quot;&gt;&#x9;&lt;/span&gt;Результат&lt;/b&gt;&lt;b style=&quot;background-color: initial;&quot;&gt;:&amp;nbsp;&lt;/b&gt;&lt;span style=&quot;background-color: initial;&quot;&gt;Клиент не нашел как и с кем провести время.&lt;/span&gt;&lt;span style=&quot;text-align: left;&quot;&gt;&lt;br&gt;&lt;/span&gt;&lt;/div&gt;" style="shape=partialRectangle;html=1;whiteSpace=wrap;connectable=0;strokeColor=inherit;overflow=hidden;fillColor=none;top=0;left=0;bottom=0;right=0;pointerEvents=1;spacingLeft=7;spacingRight=7;" vertex="1" parent="kmNXpux6cvh7I5eWKmgd-23">
          <mxGeometry x="160" width="440" height="100" as="geometry">
            <mxRectangle width="440" height="100" as="alternateBounds" />
          </mxGeometry>
        </mxCell>
        <mxCell id="kmNXpux6cvh7I5eWKmgd-26" value="&lt;b&gt;USER CASE&lt;/b&gt;" style="whiteSpace=wrap;html=1;strokeColor=none;" vertex="1" parent="1">
          <mxGeometry x="150" y="160" width="120" height="60" as="geometry" />
        </mxCell>
      </root>
    </mxGraphModel>
  </diagram>
  <diagram id="dzeYjGLBoUlJzBdF_KcF" name="BPMN">
    <mxGraphModel dx="1116" dy="886" grid="1" gridSize="10" guides="1" tooltips="1" connect="1" arrows="1" fold="1" page="1" pageScale="1" pageWidth="1169" pageHeight="827" math="0" shadow="0">
      <root>
        <mxCell id="0" />
        <mxCell id="1" parent="0" />
        <mxCell id="bFTo_YiCv1sK3xuN5KWK-14" value="Поиск / создание активностей на СЗ" style="swimlane;startSize=50;horizontal=0;html=1;whiteSpace=wrap;" parent="1" vertex="1">
          <mxGeometry x="80" y="160" width="930" height="410" as="geometry" />
        </mxCell>
        <mxCell id="Zr5_fD3SWUHh1ZhzUout-1" value="" style="points=[[0.145,0.145,0],[0.5,0,0],[0.855,0.145,0],[1,0.5,0],[0.855,0.855,0],[0.5,1,0],[0.145,0.855,0],[0,0.5,0]];shape=mxgraph.bpmn.event;html=1;verticalLabelPosition=bottom;labelBackgroundColor=#ffffff;verticalAlign=top;align=center;perimeter=ellipsePerimeter;outlineConnect=0;aspect=fixed;outline=standard;symbol=general;" parent="bFTo_YiCv1sK3xuN5KWK-14" vertex="1">
          <mxGeometry x="90" y="133.75" width="32.5" height="32.5" as="geometry" />
        </mxCell>
        <mxCell id="-uXYRUawB6G-Zc_b30fP-1" value="&lt;font style=&quot;font-size: 12px;&quot;&gt;Пользователь нажимает кнопку&lt;/font&gt;&lt;div style=&quot;&quot;&gt;&lt;font style=&quot;font-size: 12px;&quot;&gt;&quot;Поиск активностей&quot;&lt;/font&gt;&lt;/div&gt;" style="text;html=1;align=center;verticalAlign=middle;whiteSpace=wrap;rounded=0;" parent="bFTo_YiCv1sK3xuN5KWK-14" vertex="1">
          <mxGeometry x="51.25" y="65.62" width="128.75" height="50" as="geometry" />
        </mxCell>
        <mxCell id="MZsrCoXeg6Z8KqzP_6om-7" style="edgeStyle=orthogonalEdgeStyle;rounded=0;orthogonalLoop=1;jettySize=auto;html=1;" parent="bFTo_YiCv1sK3xuN5KWK-14" source="EmTWN6jmnc6d_m_KLZxq-1" target="MZsrCoXeg6Z8KqzP_6om-6" edge="1">
          <mxGeometry relative="1" as="geometry">
            <Array as="points">
              <mxPoint x="405" y="51" />
            </Array>
          </mxGeometry>
        </mxCell>
        <mxCell id="59hmk-yssHVuXWEo8j7X-1" style="edgeStyle=orthogonalEdgeStyle;rounded=0;orthogonalLoop=1;jettySize=auto;html=1;" parent="bFTo_YiCv1sK3xuN5KWK-14" source="EmTWN6jmnc6d_m_KLZxq-1" target="EmTWN6jmnc6d_m_KLZxq-7" edge="1">
          <mxGeometry relative="1" as="geometry" />
        </mxCell>
        <mxCell id="EmTWN6jmnc6d_m_KLZxq-1" value="" style="points=[[0.25,0.25,0],[0.5,0,0],[0.75,0.25,0],[1,0.5,0],[0.75,0.75,0],[0.5,1,0],[0.25,0.75,0],[0,0.5,0]];shape=mxgraph.bpmn.gateway2;html=1;verticalLabelPosition=bottom;labelBackgroundColor=#ffffff;verticalAlign=top;align=center;perimeter=rhombusPerimeter;outlineConnect=0;outline=none;symbol=none;gwType=exclusive;" parent="bFTo_YiCv1sK3xuN5KWK-14" vertex="1">
          <mxGeometry x="380" y="125" width="50" height="50" as="geometry" />
        </mxCell>
        <mxCell id="EmTWN6jmnc6d_m_KLZxq-4" style="edgeStyle=orthogonalEdgeStyle;rounded=0;orthogonalLoop=1;jettySize=auto;html=1;entryX=0;entryY=0.5;entryDx=0;entryDy=0;entryPerimeter=0;" parent="bFTo_YiCv1sK3xuN5KWK-14" source="EmTWN6jmnc6d_m_KLZxq-2" target="EmTWN6jmnc6d_m_KLZxq-1" edge="1">
          <mxGeometry relative="1" as="geometry">
            <mxPoint x="370" y="149.9949999999999" as="targetPoint" />
          </mxGeometry>
        </mxCell>
        <mxCell id="EmTWN6jmnc6d_m_KLZxq-2" value="Вводит&lt;div&gt;параметры нужной активности&lt;/div&gt;" style="points=[[0.25,0,0],[0.5,0,0],[0.75,0,0],[1,0.25,0],[1,0.5,0],[1,0.75,0],[0.75,1,0],[0.5,1,0],[0.25,1,0],[0,0.75,0],[0,0.5,0],[0,0.25,0]];shape=mxgraph.bpmn.task;whiteSpace=wrap;rectStyle=rounded;size=10;html=1;container=1;expand=0;collapsible=0;taskMarker=abstract;" parent="bFTo_YiCv1sK3xuN5KWK-14" vertex="1">
          <mxGeometry x="210" y="115.61999999999999" width="110" height="68.75" as="geometry" />
        </mxCell>
        <mxCell id="EmTWN6jmnc6d_m_KLZxq-3" style="edgeStyle=orthogonalEdgeStyle;rounded=0;orthogonalLoop=1;jettySize=auto;html=1;entryX=0;entryY=0.5;entryDx=0;entryDy=0;entryPerimeter=0;" parent="bFTo_YiCv1sK3xuN5KWK-14" source="Zr5_fD3SWUHh1ZhzUout-1" target="EmTWN6jmnc6d_m_KLZxq-2" edge="1">
          <mxGeometry relative="1" as="geometry" />
        </mxCell>
        <mxCell id="EmTWN6jmnc6d_m_KLZxq-5" value="Система&lt;div&gt;выводит список кандидатов&lt;/div&gt;" style="points=[[0.25,0,0],[0.5,0,0],[0.75,0,0],[1,0.25,0],[1,0.5,0],[1,0.75,0],[0.75,1,0],[0.5,1,0],[0.25,1,0],[0,0.75,0],[0,0.5,0],[0,0.25,0]];shape=mxgraph.bpmn.task;whiteSpace=wrap;rectStyle=rounded;size=10;html=1;container=1;expand=0;collapsible=0;taskMarker=abstract;" parent="bFTo_YiCv1sK3xuN5KWK-14" vertex="1">
          <mxGeometry x="485" y="112.81" width="120" height="74.38" as="geometry" />
        </mxCell>
        <mxCell id="EmTWN6jmnc6d_m_KLZxq-7" value="система предлагает изменить параметры поиска&amp;nbsp;&lt;div&gt;или создать самим активность&lt;/div&gt;" style="points=[[0.25,0,0],[0.5,0,0],[0.75,0,0],[1,0.25,0],[1,0.5,0],[1,0.75,0],[0.75,1,0],[0.5,1,0],[0.25,1,0],[0,0.75,0],[0,0.5,0],[0,0.25,0]];shape=mxgraph.bpmn.task;whiteSpace=wrap;rectStyle=rounded;size=10;html=1;container=1;expand=0;collapsible=0;taskMarker=abstract;" parent="bFTo_YiCv1sK3xuN5KWK-14" vertex="1">
          <mxGeometry x="327" y="280" width="155" height="90" as="geometry" />
        </mxCell>
        <mxCell id="EmTWN6jmnc6d_m_KLZxq-9" value="Да" style="text;html=1;align=center;verticalAlign=middle;whiteSpace=wrap;rounded=0;" parent="bFTo_YiCv1sK3xuN5KWK-14" vertex="1">
          <mxGeometry x="430" y="154.37" width="42" height="30" as="geometry" />
        </mxCell>
        <mxCell id="EmTWN6jmnc6d_m_KLZxq-10" value="Нет" style="text;html=1;align=center;verticalAlign=middle;whiteSpace=wrap;rounded=0;" parent="bFTo_YiCv1sK3xuN5KWK-14" vertex="1">
          <mxGeometry x="360" y="210" width="35" height="30" as="geometry" />
        </mxCell>
        <mxCell id="EmTWN6jmnc6d_m_KLZxq-16" style="edgeStyle=orthogonalEdgeStyle;rounded=0;orthogonalLoop=1;jettySize=auto;html=1;" parent="bFTo_YiCv1sK3xuN5KWK-14" target="EmTWN6jmnc6d_m_KLZxq-17" edge="1">
          <mxGeometry relative="1" as="geometry">
            <mxPoint x="775" y="149.9949999999999" as="targetPoint" />
            <Array as="points">
              <mxPoint x="808" y="150" />
              <mxPoint x="808" y="150" />
            </Array>
            <mxPoint x="790" y="150" as="sourcePoint" />
          </mxGeometry>
        </mxCell>
        <mxCell id="EmTWN6jmnc6d_m_KLZxq-17" value="" style="points=[[0.145,0.145,0],[0.5,0,0],[0.855,0.145,0],[1,0.5,0],[0.855,0.855,0],[0.5,1,0],[0.145,0.855,0],[0,0.5,0]];shape=mxgraph.bpmn.event;html=1;verticalLabelPosition=bottom;labelBackgroundColor=#ffffff;verticalAlign=top;align=center;perimeter=ellipsePerimeter;outlineConnect=0;aspect=fixed;outline=end;symbol=terminate2;" parent="bFTo_YiCv1sK3xuN5KWK-14" vertex="1">
          <mxGeometry x="843" y="131.25" width="35" height="35" as="geometry" />
        </mxCell>
        <mxCell id="EmTWN6jmnc6d_m_KLZxq-19" value="Активность появляется в списке ЛК" style="text;html=1;align=center;verticalAlign=middle;whiteSpace=wrap;rounded=0;" parent="bFTo_YiCv1sK3xuN5KWK-14" vertex="1">
          <mxGeometry x="815.5" y="63" width="94.5" height="55.62" as="geometry" />
        </mxCell>
        <mxCell id="MZsrCoXeg6Z8KqzP_6om-4" style="edgeStyle=orthogonalEdgeStyle;rounded=0;orthogonalLoop=1;jettySize=auto;html=1;exitX=1;exitY=0.5;exitDx=0;exitDy=0;exitPerimeter=0;entryX=0;entryY=0.5;entryDx=0;entryDy=0;entryPerimeter=0;" parent="bFTo_YiCv1sK3xuN5KWK-14" source="EmTWN6jmnc6d_m_KLZxq-1" target="EmTWN6jmnc6d_m_KLZxq-5" edge="1">
          <mxGeometry relative="1" as="geometry" />
        </mxCell>
        <mxCell id="MZsrCoXeg6Z8KqzP_6om-5" style="edgeStyle=orthogonalEdgeStyle;rounded=0;orthogonalLoop=1;jettySize=auto;html=1;exitX=1;exitY=0.5;exitDx=0;exitDy=0;exitPerimeter=0;entryX=0;entryY=0.5;entryDx=0;entryDy=0;entryPerimeter=0;" parent="bFTo_YiCv1sK3xuN5KWK-14" source="EmTWN6jmnc6d_m_KLZxq-5" edge="1">
          <mxGeometry relative="1" as="geometry">
            <mxPoint x="675" y="150" as="targetPoint" />
          </mxGeometry>
        </mxCell>
        <mxCell id="MZsrCoXeg6Z8KqzP_6om-6" value="" style="points=[[0.145,0.145,0],[0.5,0,0],[0.855,0.145,0],[1,0.5,0],[0.855,0.855,0],[0.5,1,0],[0.145,0.855,0],[0,0.5,0]];shape=mxgraph.bpmn.event;html=1;verticalLabelPosition=bottom;labelBackgroundColor=#ffffff;verticalAlign=top;align=center;perimeter=ellipsePerimeter;outlineConnect=0;aspect=fixed;outline=end;symbol=error;" parent="bFTo_YiCv1sK3xuN5KWK-14" vertex="1">
          <mxGeometry x="520" y="30" width="35.62" height="35.62" as="geometry" />
        </mxCell>
        <mxCell id="MZsrCoXeg6Z8KqzP_6om-8" value="Ошибка соединения с сервером" style="text;html=1;align=center;verticalAlign=middle;whiteSpace=wrap;rounded=0;" parent="bFTo_YiCv1sK3xuN5KWK-14" vertex="1">
          <mxGeometry x="565" y="30" width="110" height="50" as="geometry" />
        </mxCell>
        <mxCell id="T7BkWOie4z6KirvvzhZE-4" value="Пользователь выбирает кандидата и метчится" style="points=[[0.25,0,0],[0.5,0,0],[0.75,0,0],[1,0.25,0],[1,0.5,0],[1,0.75,0],[0.75,1,0],[0.5,1,0],[0.25,1,0],[0,0.75,0],[0,0.5,0],[0,0.25,0]];shape=mxgraph.bpmn.task;whiteSpace=wrap;rectStyle=rounded;size=10;html=1;container=1;expand=0;collapsible=0;taskMarker=abstract;" parent="bFTo_YiCv1sK3xuN5KWK-14" vertex="1">
          <mxGeometry x="675" y="112.81" width="120" height="74.38" as="geometry" />
        </mxCell>
        <mxCell id="59hmk-yssHVuXWEo8j7X-2" style="edgeStyle=orthogonalEdgeStyle;rounded=0;orthogonalLoop=1;jettySize=auto;html=1;entryX=0.5;entryY=1;entryDx=0;entryDy=0;entryPerimeter=0;" parent="bFTo_YiCv1sK3xuN5KWK-14" source="EmTWN6jmnc6d_m_KLZxq-7" target="EmTWN6jmnc6d_m_KLZxq-2" edge="1">
          <mxGeometry relative="1" as="geometry" />
        </mxCell>
        <mxCell id="POMdLoyeSTip-pTWEH2q-1" value="BPMN" style="text;html=1;align=center;verticalAlign=middle;whiteSpace=wrap;rounded=0;fontSize=18;fontStyle=1" parent="1" vertex="1">
          <mxGeometry x="70" y="90" width="80" height="50" as="geometry" />
        </mxCell>
      </root>
    </mxGraphModel>
  </diagram>
</mxfile>
